<svg width="100" height="100" fill="none" xmlns="http://www.w3.org/2000/svg"><g clip-path="url(#clip0)"><path fill-rule="evenodd" clip-rule="evenodd" d="M80.924 15.908l2.895 2.895-42.313 42.313-2.821-.074-.074-2.821 42.313-42.313zm17.612.02a4.066 4.066 0 010 5.75L47.758 72.454a4.065 4.065 0 01-2.98 1.19l-14.363-.376a4.065 4.065 0 01-3.957-3.958l-.376-14.362a4.065 4.065 0 011.19-2.98L78.048 1.19a4.065 4.065 0 015.75 0l14.737 14.738zm-1.463 83.77A2.927 2.927 0 00100 96.772v-11.79a2.927 2.927 0 00-2.927-2.926H2.927A2.927 2.927 0 000 84.983V96.77a2.927 2.927 0 002.927 2.927h94.146z" fill="#1904DA"/></g><defs><clipPath id="clip0"><path fill="#fff" d="M0 0h100v100H0z"/></clipPath></defs></svg>