<svg width="100" height="100" fill="none" xmlns="http://www.w3.org/2000/svg"><path fill-rule="evenodd" clip-rule="evenodd" d="M98.895 73.981c-.093-2.974-1.858-14.59-21.653-15.799-2.881-.186-5.948-.093-9.015 0-3.624-4.74-10.13-13.475-14.126-20.074 2.51-8.085 6.412-21.84 6.691-28.345C61.071-.552 45.551.005 45.551.005 23.99 2.422 34.12 30.488 39.51 42.662c-.744 2.881-1.86 6.506-3.16 10.037-1.395 2.974-2.882 5.948-4.461 8.643-.651 1.115-1.302 2.138-1.86 3.253l-.278.279S-4.82 68.498.571 95.17c0 0 .464 1.58 2.137 2.881.279.279.65.558 1.115.744 2.881 1.58 8.179 2.23 17.75-2.045 6.227-2.788 12.175-11.152 17.1-20.26C49.455 73.145 60.42 71.1 60.42 71.1c7.25 11.617 22.398 18.122 22.398 17.565 12.732 3.252 15.706-3.81 16.263-9.108.279-1.673.186-3.717-.186-5.576zM9.865 89.037c-2.696-.186 6.319-12.918 15.147-13.104 0 0-8.457 13.661-15.148 13.104zm38.102-78.344c6.134 1.115-2.416 17.379-2.416 17.379-3.067-5.484-3.81-18.494 2.416-17.38zm-2.23 50.65c1.673-3.904 2.974-7.343 3.81-9.759 1.487 2.137 3.16 4.09 4.647 6.227.464.65.836 1.208 1.3 1.858a152.186 152.186 0 00-9.757 1.673zm26.58 6.504S85.14 66.175 89.23 73.61c4.926 9.108-8.643 5.948-16.914-5.761z" fill="#1904DA"/></svg>