<svg width="100" height="100" fill="none" xmlns="http://www.w3.org/2000/svg"><path fill-rule="evenodd" clip-rule="evenodd" d="M43.629 17.42h12.742v-5.081H43.629v5.08zM8.065 29.757H6.169a6.17 6.17 0 010-12.338H31.29V7.5a7.5 7.5 0 017.5-7.5h22.42a7.5 7.5 0 017.5 7.5v9.92h25.12a6.17 6.17 0 110 12.338h-1.733v61.534a7.5 7.5 0 01-7.5 7.5H15.565a7.5 7.5 0 01-7.5-7.5V29.758zm12.338 56.696h59.355V30.566H20.403v55.888zm20.081-47.58a4.032 4.032 0 014.032 4.032v31.21a4.032 4.032 0 01-4.032 4.032H36.13a4.032 4.032 0 01-4.032-4.033v-31.21a4.032 4.032 0 014.032-4.032h4.355zm28.226 4.032a4.032 4.032 0 00-4.032-4.033h-4.355a4.032 4.032 0 00-4.033 4.033v31.21a4.032 4.032 0 004.033 4.032h4.354a4.032 4.032 0 004.033-4.033v-31.21z" fill="#1904DA"/></svg>