<svg width="100" height="100" fill="none" xmlns="http://www.w3.org/2000/svg"><path fill-rule="evenodd" clip-rule="evenodd" d="M76.496 43.47L45.903 74.192 33.408 61.64 15.674 44.222 28.74 31.85l7.558 7.413c-4.368-12.11-15.928-20.773-29.5-20.773-2.094 0-4.133.216-6.116.61V.377A47.924 47.924 0 016.63 0c23.84 0 43.753 16.892 48.513 39.412l8.652-8.7 12.7 12.759z" fill="#1904DA"/><path fill-rule="evenodd" clip-rule="evenodd" d="M82.267.366v81.821H17.733V60.353H0v31.304h.019C.196 96.298 3.984 100 8.642 100c.075 0 .15-.01.224-.01v.01H91.47v-.01c4.555-.122 8.221-3.767 8.399-8.333H100V.367H82.267z" fill="#1904DA"/></svg>