<svg width="100" height="100" fill="none" xmlns="http://www.w3.org/2000/svg"><path fill-rule="evenodd" clip-rule="evenodd" d="M27.676 28.329l1.132-1.131c.174-.087.26-.262.435-.349.435-.348.87-.783 1.305-1.131.261-.261.523-.435.784-.61.174-.173.435-.26.609-.434.696-.523 1.392-.958 2.089-1.393h.087c.435-.261.783-.522 1.218-.696.087 0 .174-.087.261-.087A33.237 33.237 0 0139.6 20.67c.087 0 .174-.087.174-.087.87-.348 1.74-.61 2.61-.783.088 0 .175 0 .262-.087l1.305-.261c.261-.087.435-.087.697-.174.522-.087 1.13-.174 1.74-.261.435-.087.784-.087 1.219-.174.26 0 .609-.087.87-.087.61 0 1.218-.088 1.828-.088h.261c.783 0 1.48 0 2.262.088h.088c12.097.87 22.193 8.616 26.631 19.32h-6.005l11.576 18.8L100 38.076h-5.57C89.208 18.582 71.453 4.309 50.305 4.309c-16.798 0-31.506 9.139-39.426 22.628l10.879 10.531c1.393-3.22 3.394-6.179 5.831-8.79-.087-.174 0-.261.087-.348zm62.315 44.038l-10.618-10.27a31.39 31.39 0 01-29.068 19.409c-13.316 0-24.63-8.268-29.243-19.93h6.092l-12.271-18.8L0 61.576h5.831c5.135 19.582 22.977 34.116 44.213 34.116 17.232 0 32.114-9.4 39.947-23.325z" fill="#1904DA"/></svg>