<svg width="16" height="16" viewBox="0 0 16 16" fill="none" xmlns="http://www.w3.org/2000/svg">
<path fill-rule="evenodd" clip-rule="evenodd" d="M10.6206 0.949085C10.6802 1.05323 10.6974 1.17666 10.6685 1.29333L7.19532 15.3184C7.16511 15.4404 7.08712 15.5448 6.97921 15.6076L6.42613 15.9298C6.20628 16.0578 5.92519 15.9818 5.79827 15.76L5.51226 15.2603C5.45295 15.1566 5.43565 15.0339 5.46399 14.9177L8.90019 0.825571C8.93005 0.703103 9.00807 0.59819 9.11627 0.535014L9.668 0.212844C9.88786 0.0844577 10.1693 0.160364 10.2963 0.382319L10.6206 0.949085Z" fill="#183278"/>
<path d="M11.9791 6.21673C11.7334 5.95902 11.3033 6.06697 11.2059 6.41076L10.838 7.70965C10.7928 7.8692 10.8356 8.04096 10.9501 8.16002L12.9858 10.2758C13.1547 10.4513 13.1594 10.729 12.9965 10.9102L10.9297 13.2104C10.8267 13.325 10.7871 13.4838 10.8242 13.6339L11.1311 14.8782C11.2188 15.2333 11.6605 15.3509 11.9104 15.0856L15.8436 10.9093C16.0128 10.7295 16.012 10.4472 15.8415 10.2684L11.9791 6.21673Z" fill="#183278"/>
<path d="M4.11925 2.13667C4.36494 1.87894 4.79508 1.98689 4.89246 2.33068L5.26037 3.62956C5.30556 3.78912 5.26281 3.96087 5.14824 4.07996L3.11255 6.19571C2.94368 6.37122 2.93899 6.64889 3.10182 6.83012L5.16871 9.13036C5.27165 9.24493 5.3112 9.40374 5.27418 9.55379L4.9672 10.7981C4.8796 11.1532 4.43784 11.2708 4.18797 11.0055L0.254836 6.82918C0.0855347 6.64941 0.0863853 6.36708 0.256765 6.18836L4.11925 2.13667Z" fill="#183278"/>
</svg>
