<svg width="16" height="16" viewBox="0 0 16 16" fill="none" xmlns="http://www.w3.org/2000/svg">
<path fill-rule="evenodd" clip-rule="evenodd" d="M7.98476 14.0459C11.3115 14.0459 14.0084 11.3491 14.0084 8.02236C14.0084 4.69561 11.3115 1.99875 7.98476 1.99875C4.65802 1.99875 1.96117 4.69561 1.96117 8.02236C1.96117 11.3491 4.65802 14.0459 7.98476 14.0459ZM7.98476 15.9431C12.3593 15.9431 15.9056 12.3969 15.9056 8.02236C15.9056 3.64783 12.3593 0.101562 7.98476 0.101562C3.61023 0.101562 0.0639648 3.64783 0.0639648 8.02236C0.0639648 12.3969 3.61023 15.9431 7.98476 15.9431Z" fill="#FFBF50"/>
<path fill-rule="evenodd" clip-rule="evenodd" d="M4.9503 4.26441C5.13633 4.08 5.43664 4.08131 5.62105 4.26734L11.6959 10.3955C11.8803 10.5815 11.879 10.8818 11.693 11.0662L11.0193 11.734C10.8332 11.9184 10.5329 11.9171 10.3485 11.7311L4.27369 5.60299C4.08928 5.41695 4.09058 5.11665 4.27662 4.93223L4.9503 4.26441Z" fill="#FFBF50"/>
<path fill-rule="evenodd" clip-rule="evenodd" d="M4.24976 11.0334C4.06535 10.8474 4.06665 10.5471 4.2527 10.3627L10.3808 4.28786C10.5668 4.10343 10.8671 4.10475 11.0516 4.29077L11.7194 4.96447C11.9038 5.1505 11.9025 5.4508 11.7165 5.63522L5.58835 11.71C5.4023 11.8945 5.10199 11.8931 4.91758 11.7071L4.24976 11.0334Z" fill="#FFBF50"/>
</svg>
