<svg width="100" height="100" fill="none" xmlns="http://www.w3.org/2000/svg"><path fill-rule="evenodd" clip-rule="evenodd" d="M86.774 42.463L99.27 30.147 68.686 0 55.985 12.51l8.642 8.528c-22.41 4.702-39.216 24.33-39.216 47.82 0 1.991.13 3.936.374 5.863h18.64a30.523 30.523 0 01-.608-6.03c0-13.376 8.623-24.771 20.688-29.076l-7.398 7.449 12.327 12.879 17.34-17.48zM82.267 82.52V61.095H100v30.718h-.019c-.177 4.545-3.965 8.187-8.623 8.187a1.83 1.83 0 01-.112-.005 1.833 1.833 0 00-.112-.005v.01H8.53v-.01c-4.555-.12-8.221-3.706-8.4-8.177H0V2.231h17.733v80.29h64.534z" fill="#1904DA"/></svg>