<svg width="16" height="16" viewBox="0 0 16 16" fill="none" xmlns="http://www.w3.org/2000/svg">
<path fill-rule="evenodd" clip-rule="evenodd" d="M7.99746 1.38091C7.95534 1.358 7.90898 1.34112 7.85935 1.3316L1.77335 0.164727C0.893175 -0.00402902 0.0766602 0.668398 0.0766602 1.56201V14.557C0.0766602 15.4412 0.877078 16.1114 1.75063 15.9585L7.89317 14.8832C7.92977 14.8768 7.96465 14.8664 7.99746 14.8525C8.03025 14.8664 8.06514 14.8768 8.10173 14.8832L14.2443 15.9585C15.1178 16.1114 15.9182 15.4412 15.9182 14.557V1.56201C15.9182 0.668398 15.1017 -0.00402902 14.2216 0.164727L8.13555 1.3316C8.08592 1.34112 8.03957 1.358 7.99746 1.38091ZM2.54512 2.24464C2.25172 2.18839 1.97956 2.41253 1.97956 2.7104V13.4273C1.97956 13.7221 2.24636 13.9455 2.53755 13.8945L7.45037 13.0345V3.18512L2.54512 2.24464ZM14.0153 2.7104C14.0153 2.41253 13.7432 2.18839 13.4498 2.24464L8.49492 3.19464C8.46365 3.20063 8.4325 3.20344 8.40182 3.20326V13.0104C8.41145 13.0115 8.42111 13.0129 8.43081 13.0146L13.4574 13.8945C13.7485 13.9455 14.0153 13.7221 14.0153 13.4273V2.7104Z" fill="#183278"/>
</svg>
