<svg width="100" height="100" fill="none" xmlns="http://www.w3.org/2000/svg"><path fill-rule="evenodd" clip-rule="evenodd" d="M80.065 31.589l-1.448-1.495C69.386 19.407 49.526 0 49.526 0l.139.234-.177.179.039-.226s-27.748 26.207-32.99 34.61c-3.082 4.51-8.126 13.606-7.482 24.082.636 10.342 2.89 15.802 4.952 19.306C20.838 91.168 34.298 100 49.804 100 71.68 100 89.5 82.399 90.329 60.374h.038s1.686-14.463-10.302-28.785zM49.673 85.296c-4.17 0-7.55-.335-7.55-5.14 0-4.798 3.38-8.692 7.55-8.692s7.55 3.886 7.55 8.692c0 4.805-3.38 5.14-7.55 5.14zm25.992-24.75c-.007.07-.007.132-.015.202h.008v.03a26.983 26.983 0 01-9.49 18.591v-.584h-.084c.016-.257.023-.514.023-.779 0-9.12-7.274-16.51-16.25-16.51-8.975 0-16.25 7.39-16.25 16.51 0 .265.016.522.031.779h-.023v1.121a26.989 26.989 0 01-10.202-21.168c0-.078.008-.155.008-.233h-.008s-.805-10.07 10.118-21.122c10.922-11.051 16.188-16.262 16.188-16.262l18.266 18.895c3.595 4.423 8.08 11.775 7.68 20.53zM49.88 39.391c-5.304 0-9.612 4.37-9.612 9.76 0 5.389 4.3 9.765 9.612 9.765 5.304 0 9.612-4.369 9.612-9.766 0-5.39-4.307-9.759-9.612-9.759z" fill="#1904DA"/></svg>