<svg width="16" height="16" viewBox="0 0 16 16" fill="none" xmlns="http://www.w3.org/2000/svg">
<path fill-rule="evenodd" clip-rule="evenodd" d="M7.93887 14.003C11.2656 14.003 13.9625 11.3061 13.9625 7.97938C13.9625 4.65265 11.2656 1.9558 7.93887 1.9558C4.61212 1.9558 1.91526 4.65265 1.91526 7.97938C1.91526 11.3061 4.61212 14.003 7.93887 14.003ZM7.93887 15.9002C12.3134 15.9002 15.8596 12.3539 15.8596 7.97938C15.8596 3.60486 12.3134 0.0585938 7.93887 0.0585938C3.56432 0.0585938 0.0180664 3.60486 0.0180664 7.97938C0.0180664 12.3539 3.56432 15.9002 7.93887 15.9002Z" fill="#00FFE4"/>
<path d="M6.94287 7.07781C6.94287 6.81586 7.15523 6.60352 7.41717 6.60352H8.36578C8.62772 6.60352 8.84007 6.81586 8.84007 7.07781V11.5362C8.84007 11.7982 8.62772 12.0105 8.36578 12.0105H7.41717C7.15523 12.0105 6.94287 11.7982 6.94287 11.5362V7.07781Z" fill="#00FFE4"/>
<path d="M8.84021 4.84954C8.84021 5.39964 8.39427 5.84558 7.84418 5.84558C7.29408 5.84558 6.84814 5.39964 6.84814 4.84954C6.84814 4.29946 7.29408 3.85352 7.84418 3.85352C8.39427 3.85352 8.84021 4.29946 8.84021 4.84954Z" fill="#00FFE4"/>
</svg>
