<svg width="16" height="16" viewBox="0 0 16 16" fill="none" xmlns="http://www.w3.org/2000/svg">
<path d="M7.51856 10.2797C7.52369 10.3282 7.56444 10.3651 7.61301 10.3651H8.4211C8.46969 10.3651 8.51043 10.3282 8.51555 10.2797L8.84609 7.14658C8.85203 7.09017 8.80805 7.04102 8.75164 7.04102H7.28249C7.22606 7.04102 7.18208 7.09017 7.18804 7.14658L7.51856 10.2797Z" fill="#FFBF50"/>
<path d="M7.14746 11.8682C7.14746 12.3151 7.51275 12.6755 7.96569 12.6755C8.41865 12.6755 8.78394 12.3151 8.78394 11.8682C8.78394 11.4213 8.41865 11.0609 7.96569 11.0609C7.51275 11.0465 7.14746 11.4213 7.14746 11.8682Z" fill="#FFBF50"/>
<path fill-rule="evenodd" clip-rule="evenodd" d="M7.489 0.347986C7.66193 -0.00387278 8.15969 -0.00735651 8.33748 0.342047L15.9119 15.2286C16.0735 15.5463 15.8441 15.9235 15.4891 15.9235H0.598524C0.246477 15.9235 0.0168265 15.5519 0.172804 15.2345L7.489 0.347986ZM2.89168 14.0135L7.9368 3.74803L13.16 14.0135H2.89168Z" fill="#FFBF50"/>
</svg>
